<svg width="203" height="41" viewBox="0 0 203 41" fill="none" xmlns="http://www.w3.org/2000/svg">
<g clip-path="url(#clip0_102_138)">
<path fill-rule="evenodd" clip-rule="evenodd" d="M26.0074 12.0979C24.3629 10.9991 22.4295 10.4126 20.4517 10.4126V0.412598C24.4073 0.412598 28.2741 1.58558 31.5631 3.78321C34.8521 5.98083 37.4155 9.10441 38.9293 12.7589C40.443 16.4134 40.8391 20.4348 40.0674 24.3144C39.2957 28.194 37.3909 31.7577 34.5938 34.5547C31.7968 37.3518 28.2331 39.2566 24.3535 40.0283C20.4739 40.8 16.4525 40.4039 12.798 38.8902C9.14346 37.3764 6.01989 34.813 3.82227 31.524C1.62464 28.235 0.45166 24.3682 0.45166 20.4126H10.4517C10.4517 22.3904 11.0382 24.3238 12.137 25.9683C13.2358 27.6128 14.7976 28.8945 16.6249 29.6514C18.4521 30.4083 20.4628 30.6063 22.4026 30.2204C24.3424 29.8346 26.1242 28.8822 27.5228 27.4837C28.9213 26.0851 29.8737 24.3033 30.2595 22.3635C30.6454 20.4237 30.4474 18.413 29.6905 16.5858C28.9336 14.7585 27.6519 13.1967 26.0074 12.0979Z" fill="black"/>
<path fill-rule="evenodd" clip-rule="evenodd" d="M10.4517 0.412603C10.4517 1.72582 10.193 3.02618 9.69045 4.23944C9.1879 5.45269 8.45131 6.55508 7.52272 7.48367C6.59414 8.41226 5.49175 9.14885 4.27849 9.6514C3.06523 10.1539 1.76487 10.4126 0.451661 10.4126L0.45166 20.4126C3.07809 20.4126 5.67881 19.8953 8.10533 18.8902C10.5319 17.8851 12.7367 16.4119 14.5938 14.5547C16.451 12.6976 17.9242 10.4928 18.9293 8.06627C19.9344 5.63975 20.4517 3.03903 20.4517 0.412598L10.4517 0.412603Z" fill="black"/>
<path d="M126.071 14.865H121.219V30.2773H126.071V14.865Z" fill="black"/>
<path d="M121.759 11.9792C122.266 12.4866 122.9 12.7403 123.661 12.7403C124.422 12.7403 125.046 12.4866 125.532 11.9792C126.019 11.4507 126.262 10.8164 126.262 10.0764C126.262 9.31537 126.019 8.68109 125.532 8.17371C125.046 7.66629 124.422 7.4126 123.661 7.4126C122.9 7.4126 122.266 7.66629 121.759 8.17371C121.272 8.68109 121.029 9.31537 121.029 10.0764C121.029 10.8164 121.272 11.4507 121.759 11.9792Z" fill="black"/>
<path d="M51.6079 30.2773V7.88818H56.5868V25.901H66.5129V30.2773H51.6079Z" fill="black"/>
<path fill-rule="evenodd" clip-rule="evenodd" d="M75.479 30.6261C73.8934 30.6261 72.4558 30.2773 71.1661 29.5796C69.8976 28.8608 68.8934 27.8883 68.1534 26.662C67.4135 25.4358 67.0435 24.0616 67.0435 22.5394C67.0435 21.0172 67.4135 19.6536 68.1534 18.4485C68.8934 17.2434 69.8976 16.292 71.1661 15.5944C72.4346 14.8755 73.8723 14.5161 75.479 14.5161C77.0858 14.5161 78.5234 14.865 79.7919 15.5626C81.0604 16.2603 82.0647 17.2223 82.8046 18.4485C83.5445 19.6536 83.9146 21.0172 83.9146 22.5394C83.9146 24.0616 83.5445 25.4358 82.8046 26.662C82.0647 27.8883 81.0604 28.8608 79.7919 29.5796C78.5234 30.2773 77.0858 30.6261 75.479 30.6261ZM75.479 26.2181C76.1767 26.2181 76.7898 26.0701 77.3184 25.7741C77.8469 25.457 78.2486 25.0236 78.5234 24.4739C78.8194 23.9031 78.9674 23.2582 78.9674 22.5394C78.9674 21.8206 78.8194 21.1969 78.5234 20.6684C78.2274 20.1187 77.8152 19.6959 77.2866 19.3999C76.7792 19.0827 76.1767 18.9242 75.479 18.9242C74.8025 18.9242 74.2 19.0827 73.6714 19.3999C73.1429 19.6959 72.7306 20.1187 72.4346 20.6684C72.1386 21.2181 71.9907 21.8523 71.9907 22.5711C71.9907 23.2688 72.1386 23.9031 72.4346 24.4739C72.7306 25.0236 73.1429 25.457 73.6714 25.7741C74.2 26.0701 74.8025 26.2181 75.479 26.2181Z" fill="black"/>
<path fill-rule="evenodd" clip-rule="evenodd" d="M87.7573 36.3028C89.0469 36.8947 90.5374 37.1907 92.2288 37.1907C93.8778 37.1907 95.3472 36.8629 96.6368 36.2076C97.9265 35.5522 98.9412 34.6432 99.6812 33.4804C100.421 32.3176 100.792 30.9434 100.792 29.3577V14.8651H96.0342V15.9006C95.6804 15.6028 95.2786 15.3528 94.8292 15.1505C94.0046 14.7488 93.0638 14.5479 92.0068 14.5479C90.5903 14.5479 89.3323 14.8862 88.233 15.5627C87.1335 16.2181 86.2668 17.1272 85.6325 18.29C84.9982 19.4317 84.6812 20.7213 84.6812 22.159C84.6812 23.5755 84.9982 24.8651 85.6325 26.0279C86.2668 27.1907 87.1335 28.1104 88.233 28.7869C89.3323 29.4634 90.5903 29.8017 92.0068 29.8017C93.0427 29.8017 93.9835 29.6009 94.8292 29.1992C95.2388 29.0046 95.6088 28.7753 95.9391 28.5112V29.4846C95.9391 30.5628 95.5903 31.3979 94.8926 31.9899C94.2161 32.5819 93.2753 32.8778 92.0702 32.8778C91.0977 32.8778 90.2625 32.7087 89.5648 32.3704C88.8884 32.0322 88.2752 31.5353 87.7255 30.8799L84.7446 33.8609C85.4845 34.918 86.4888 35.732 87.7573 36.3028ZM94.6706 25.0448C94.1843 25.3408 93.603 25.4888 92.9264 25.4888C92.2499 25.4888 91.6579 25.3408 91.1505 25.0448C90.6642 24.7488 90.2836 24.3471 90.0089 23.8397C89.734 23.3112 89.5965 22.7509 89.5965 22.159C89.5965 21.5247 89.734 20.9539 90.0089 20.4465C90.2836 19.9391 90.6748 19.5374 91.1822 19.2414C91.6896 18.9454 92.271 18.7974 92.9264 18.7974C93.603 18.7974 94.1843 18.9454 94.6706 19.2414C95.178 19.5374 95.5585 19.9391 95.8123 20.4465C96.0871 20.9539 96.2245 21.5247 96.2245 22.159C96.2245 22.7932 96.0871 23.364 95.8123 23.8714C95.5585 24.3577 95.178 24.7488 94.6706 25.0448Z" fill="black"/>
<path fill-rule="evenodd" clip-rule="evenodd" d="M111.003 30.6261C109.417 30.6261 107.979 30.2773 106.69 29.5796C105.421 28.8608 104.417 27.8883 103.677 26.662C102.937 25.4358 102.567 24.0616 102.567 22.5394C102.567 21.0172 102.937 19.6536 103.677 18.4485C104.417 17.2434 105.421 16.292 106.69 15.5944C107.958 14.8755 109.396 14.5161 111.003 14.5161C112.609 14.5161 114.047 14.865 115.315 15.5626C116.584 16.2603 117.588 17.2223 118.328 18.4485C119.068 19.6536 119.438 21.0172 119.438 22.5394C119.438 24.0616 119.068 25.4358 118.328 26.662C117.588 27.8883 116.584 28.8608 115.315 29.5796C114.047 30.2773 112.609 30.6261 111.003 30.6261ZM111.003 26.2181C111.7 26.2181 112.313 26.0701 112.842 25.7741C113.37 25.457 113.772 25.0236 114.047 24.4739C114.343 23.9031 114.491 23.2582 114.491 22.5394C114.491 21.8206 114.343 21.1969 114.047 20.6684C113.751 20.1187 113.339 19.6959 112.81 19.3999C112.303 19.0827 111.7 18.9242 111.003 18.9242C110.326 18.9242 109.723 19.0827 109.195 19.3999C108.666 19.6959 108.254 20.1187 107.958 20.6684C107.662 21.2181 107.514 21.8523 107.514 22.5711C107.514 23.2688 107.662 23.9031 107.958 24.4739C108.254 25.0236 108.666 25.457 109.195 25.7741C109.723 26.0701 110.326 26.2181 111.003 26.2181Z" fill="black"/>
<path fill-rule="evenodd" clip-rule="evenodd" d="M137.733 30.5945C136.698 30.5945 135.746 30.3937 134.879 29.992C134.423 29.7806 134.011 29.5282 133.643 29.2348V36.7785H128.854V14.8651H133.706V15.9288C134.058 15.6409 134.449 15.392 134.879 15.1822C135.746 14.7593 136.698 14.5479 137.733 14.5479C139.192 14.5479 140.482 14.8968 141.602 15.5945C142.744 16.2921 143.632 17.2435 144.266 18.4486C144.922 19.6537 145.249 21.0279 145.249 22.5712C145.249 24.1146 144.922 25.4888 144.266 26.6939C143.632 27.899 142.744 28.8503 141.602 29.548C140.482 30.2457 139.192 30.5945 137.733 30.5945ZM136.846 26.2182C137.543 26.2182 138.146 26.0596 138.653 25.7425C139.182 25.4254 139.594 24.9919 139.89 24.4423C140.186 23.8926 140.334 23.2689 140.334 22.5712C140.334 21.8524 140.186 21.2182 139.89 20.6685C139.594 20.1188 139.182 19.696 138.653 19.4C138.146 19.0828 137.554 18.9243 136.877 18.9243C136.201 18.9243 135.598 19.0828 135.07 19.4C134.562 19.696 134.161 20.1188 133.865 20.6685C133.569 21.2182 133.421 21.8524 133.421 22.5712C133.421 23.2689 133.558 23.8926 133.833 24.4423C134.129 24.9919 134.541 25.4254 135.07 25.7425C135.598 26.0596 136.19 26.2182 136.846 26.2182Z" fill="black"/>
<path d="M149.998 30.3091C150.886 30.5417 151.784 30.6579 152.693 30.6579C154.617 30.6579 156.139 30.214 157.26 29.326C158.401 28.4381 158.972 27.2436 158.972 25.7425C158.972 24.77 158.793 23.9877 158.433 23.3958C158.074 22.7827 157.609 22.2964 157.038 21.937C156.467 21.5776 155.864 21.2921 155.23 21.0807C154.596 20.8693 153.993 20.6896 153.423 20.5416C152.852 20.3936 152.387 20.2245 152.027 20.0342C151.668 19.8439 151.488 19.5902 151.488 19.2731C151.488 18.9771 151.626 18.7551 151.9 18.6071C152.175 18.438 152.587 18.3535 153.137 18.3535C153.708 18.3535 154.289 18.4697 154.881 18.7023C155.494 18.9348 156.044 19.3366 156.53 19.9074L159.289 17.1167C158.592 16.2287 157.683 15.5627 156.562 15.1188C155.463 14.6537 154.258 14.4211 152.947 14.4211C151.7 14.4211 150.611 14.6325 149.681 15.0553C148.75 15.4782 148.031 16.0596 147.524 16.7995C147.017 17.5183 146.763 18.3746 146.763 19.3683C146.763 20.2985 146.943 21.0702 147.302 21.6833C147.661 22.2752 148.127 22.7404 148.697 23.0786C149.268 23.4169 149.871 23.6812 150.505 23.8714C151.139 24.0617 151.742 24.2414 152.313 24.4106C152.883 24.5586 153.349 24.7383 153.708 24.9497C154.089 25.14 154.279 25.4254 154.279 25.8059C154.279 26.1019 154.12 26.3344 153.803 26.5036C153.507 26.6727 153.074 26.7573 152.503 26.7573C151.678 26.7573 150.917 26.6093 150.22 26.3133C149.522 25.9962 148.919 25.5628 148.412 25.0131L145.653 27.8038C146.182 28.3746 146.816 28.8821 147.556 29.326C148.317 29.7488 149.131 30.0765 149.998 30.3091Z" fill="black"/>
<path d="M167.82 30.6261C166.404 30.6261 165.146 30.3407 164.047 29.7699C162.968 29.1779 162.123 28.3745 161.51 27.3597C160.896 26.3238 160.59 25.1399 160.59 23.8079V14.865H165.442V23.7445C165.442 24.273 165.526 24.7276 165.696 25.1081C165.886 25.4887 166.161 25.7847 166.52 25.9961C166.88 26.2075 167.313 26.3132 167.82 26.3132C168.539 26.3132 169.11 26.0912 169.533 25.6472C169.956 25.1821 170.167 24.5479 170.167 23.7445V14.865H175.019V23.7762C175.019 25.1293 174.713 26.3238 174.099 27.3597C173.486 28.3745 172.641 29.1779 171.562 29.7699C170.484 30.3407 169.237 30.6261 167.82 30.6261Z" fill="black"/>
<path d="M182.283 14.8651H177.431V30.2774H182.283V21.271C182.283 20.7425 182.389 20.2985 182.6 19.9391C182.833 19.5797 183.14 19.3048 183.52 19.1146C183.901 18.9031 184.334 18.7974 184.82 18.7974C185.518 18.7974 186.099 19.0194 186.564 19.4634C187.051 19.8862 187.294 20.4888 187.294 21.271V30.2774H192.146V21.271C192.146 20.7425 192.252 20.2985 192.463 19.9391C192.696 19.5797 193.002 19.3048 193.383 19.1146C193.763 18.9031 194.197 18.7974 194.683 18.7974C195.381 18.7974 195.962 19.0194 196.427 19.4634C196.913 19.8862 197.156 20.4888 197.156 21.271V30.2774H202.009V20.7319C202.009 19.4423 201.734 18.3429 201.184 17.4338C200.655 16.5035 199.926 15.7953 198.996 15.3091C198.087 14.8016 197.04 14.5479 195.856 14.5479C194.651 14.5479 193.562 14.8122 192.59 15.3408C191.958 15.6775 191.406 16.1121 190.933 16.6445C190.492 16.0876 189.956 15.6319 189.323 15.2773C188.478 14.7911 187.516 14.5479 186.438 14.5479C185.296 14.5479 184.271 14.7911 183.362 15.2773C182.966 15.4796 182.607 15.7219 182.283 16.0042V14.8651Z" fill="black"/>
</g>
<defs>
<clipPath id="clip0_102_138">
<rect width="202" height="40" fill="white" transform="translate(0.45166 0.412598)"/>
</clipPath>
</defs>
</svg>
