<svg width="77" height="64" viewBox="0 0 77 64" fill="none" xmlns="http://www.w3.org/2000/svg">
<circle cx="31.5" cy="32.2622" r="31.5" fill="#58BF73"/>
<g filter="url(#filter0_b_102_584)">
<rect x="22.5835" y="12.7622" width="53.6667" height="39.6667" rx="19.8333" fill="#F1F1F1" fill-opacity="0.1"/>
<rect x="22.5835" y="12.7622" width="53.6667" height="39.6667" rx="19.8333" fill="#84D576" fill-opacity="0.65"/>
<rect x="22.8335" y="13.0122" width="53.1667" height="39.1667" rx="19.5833" stroke="white" stroke-width="0.5"/>
</g>
<path d="M54.4194 34.5122H45.1616L51.3335 40.7231C51.5679 40.9575 51.9585 40.9575 52.1929 40.7231C53.7163 39.3169 54.771 37.4028 55.0444 35.2153C55.1226 34.8638 54.8101 34.5122 54.4194 34.5122ZM53.7944 32.0122C53.4819 27.3247 49.771 23.6138 45.0835 23.3013C44.7319 23.2622 44.4585 23.5747 44.4585 23.9263V32.6372H53.1694C53.521 32.6372 53.8335 32.3638 53.7944 32.0122ZM42.5835 34.5122V25.2544C42.5835 24.9028 42.2319 24.5903 41.8804 24.6294C37.1929 25.2935 33.6382 29.356 33.8335 34.2388C33.9897 39.2388 38.2866 43.3403 43.3257 43.2622C45.2788 43.2622 47.1147 42.6372 48.5991 41.5435C48.9116 41.3481 48.9116 40.8794 48.6382 40.606L42.5835 34.5122Z" fill="white"/>
<defs>
<filter id="filter0_b_102_584" x="21.5835" y="11.7622" width="55.6665" height="41.6666" filterUnits="userSpaceOnUse" color-interpolation-filters="sRGB">
<feFlood flood-opacity="0" result="BackgroundImageFix"/>
<feGaussianBlur in="BackgroundImageFix" stdDeviation="0.5"/>
<feComposite in2="SourceAlpha" operator="in" result="effect1_backgroundBlur_102_584"/>
<feBlend mode="normal" in="SourceGraphic" in2="effect1_backgroundBlur_102_584" result="shape"/>
</filter>
</defs>
</svg>
